<?xml version="1.0" encoding="UTF-8"?>
<svg xmlns="http://www.w3.org/2000/svg" xmlns:xlink="http://www.w3.org/1999/xlink" width="128pt" height="128pt" viewBox="0 0 128 128" version="1.1">
<g id="surface1">
<path style=" stroke:none;fill-rule:nonzero;fill:rgb(23.137255%,34.901961%,59.607843%);fill-opacity:1;" d="M 88.171875 127.65625 L 120.628906 127.65625 C 124.507812 127.65625 127.65625 124.511719 127.65625 120.628906 L 127.65625 7.320312 C 127.65625 3.4375 124.507812 0.289062 120.628906 0.289062 L 7.320312 0.289062 C 3.4375 0.289062 0.289062 3.4375 0.289062 7.320312 L 0.289062 120.628906 C 0.289062 124.507812 3.4375 127.65625 7.320312 127.65625 L 68.320312 127.65625 L 68.320312 78.34375 L 51.722656 78.34375 L 51.722656 59.121094 L 68.320312 59.121094 L 68.320312 44.945312 C 68.320312 28.492188 78.367188 19.535156 93.042969 19.535156 C 100.074219 19.535156 106.117188 20.058594 107.875 20.292969 L 107.875 37.484375 L 97.695312 37.492188 C 89.714844 37.492188 88.171875 41.285156 88.171875 46.847656 L 88.171875 59.121094 L 107.207031 59.121094 L 104.726562 78.34375 L 88.171875 78.34375 Z M 88.171875 127.65625 "/>
</g>
</svg>
