<?xml version="1.0" encoding="UTF-8"?>
<svg xmlns="http://www.w3.org/2000/svg" xmlns:xlink="http://www.w3.org/1999/xlink" width="128pt" height="128pt" viewBox="0 0 128 128" version="1.1">
<g id="surface1">
<path style=" stroke:none;fill-rule:nonzero;fill:rgb(0%,0%,0%);fill-opacity:1;" d="M 126.640625 52.015625 L 65.964844 7.589844 C 64.792969 6.734375 63.207031 6.734375 62.035156 7.589844 L 1.359375 52.015625 C -0.121094 53.101562 -0.441406 55.183594 0.640625 56.664062 C 1.726562 58.144531 3.808594 58.46875 5.289062 57.382812 L 64 14.398438 L 122.710938 57.382812 C 123.300781 57.816406 123.988281 58.023438 124.671875 58.023438 C 125.695312 58.023438 126.707031 57.554688 127.355469 56.664062 C 128.441406 55.183594 128.121094 53.101562 126.640625 52.015625 Z M 126.640625 52.015625 "/>
<path style=" stroke:none;fill-rule:nonzero;fill:rgb(0%,0%,0%);fill-opacity:1;" d="M 110.5625 58.136719 C 108.726562 58.136719 107.234375 59.625 107.234375 61.460938 L 107.234375 114.398438 L 80.628906 114.398438 L 80.628906 85.503906 C 80.628906 76.332031 73.167969 68.871094 64 68.871094 C 54.832031 68.871094 47.371094 76.332031 47.371094 85.503906 L 47.371094 114.398438 L 20.765625 114.398438 L 20.765625 61.460938 C 20.765625 59.625 19.273438 58.136719 17.4375 58.136719 C 15.601562 58.136719 14.113281 59.625 14.113281 61.460938 L 14.113281 117.726562 C 14.113281 119.5625 15.601562 121.050781 17.4375 121.050781 L 50.695312 121.050781 C 52.445312 121.050781 53.875 119.699219 54.007812 117.984375 C 54.015625 117.90625 54.023438 117.820312 54.023438 117.726562 L 54.023438 85.503906 C 54.023438 80 58.496094 75.523438 64 75.523438 C 69.503906 75.523438 73.980469 80 73.980469 85.503906 L 73.980469 117.726562 C 73.980469 117.820312 73.984375 117.902344 73.992188 117.980469 C 74.121094 119.699219 75.554688 121.050781 77.304688 121.050781 L 110.5625 121.050781 C 112.398438 121.050781 113.886719 119.5625 113.886719 117.726562 L 113.886719 61.460938 C 113.886719 59.625 112.398438 58.136719 110.5625 58.136719 Z M 110.5625 58.136719 "/>
</g>
</svg>
