<?xml version="1.0" encoding="UTF-8"?>
<svg xmlns="http://www.w3.org/2000/svg" xmlns:xlink="http://www.w3.org/1999/xlink" width="128pt" height="128pt" viewBox="0 0 128 128" version="1.1">
<g id="surface1">
<path style=" stroke:none;fill-rule:nonzero;fill:rgb(0%,0%,0%);fill-opacity:1;" d="M 105.625 67.652344 C 104.597656 67.652344 103.761719 68.488281 103.761719 69.515625 C 103.761719 70.820312 102.703125 71.882812 101.398438 71.882812 C 100.09375 71.882812 99.03125 70.820312 99.03125 69.515625 C 99.03125 68.488281 98.199219 67.652344 97.167969 67.652344 C 96.140625 67.652344 95.308594 68.488281 95.308594 69.515625 C 95.308594 72.875 98.039062 75.605469 101.398438 75.605469 C 104.757812 75.605469 107.488281 72.875 107.488281 69.515625 C 107.488281 68.488281 106.65625 67.652344 105.625 67.652344 Z M 105.625 67.652344 "/>
<path style=" stroke:none;fill-rule:nonzero;fill:rgb(0%,0%,0%);fill-opacity:1;" d="M 123.109375 67.957031 L 117.867188 66.277344 C 117.195312 66.0625 116.667969 65.527344 116.453125 64.84375 C 115.347656 61.332031 113.679688 58.03125 111.496094 55.039062 C 110.5 53.675781 109.394531 52.375 108.183594 51.132812 C 108.957031 47.742188 109.378906 43.902344 109.324219 40.582031 C 109.246094 35.835938 108.296875 33.054688 106.425781 32.074219 C 105.417969 31.542969 102.347656 29.9375 85.730469 37.542969 C 85.335938 37.722656 84.96875 37.945312 84.628906 38.199219 C 83.507812 37.898438 82.363281 37.621094 81.210938 37.371094 C 81.074219 37.339844 80.929688 37.3125 80.789062 37.28125 C 82.136719 34.339844 82.921875 31.148438 83.070312 27.847656 C 83.117188 26.820312 82.320312 25.949219 81.292969 25.902344 C 80.265625 25.851562 79.394531 26.652344 79.347656 27.683594 C 79.105469 33.105469 76.855469 38.207031 73.015625 42.046875 C 70.71875 44.34375 68.03125 46.011719 65.167969 47.0625 C 60.199219 46.363281 55.140625 46.363281 50.171875 47.0625 C 47.308594 46.011719 44.621094 44.34375 42.328125 42.046875 C 38.226562 37.949219 35.972656 32.5 35.972656 26.703125 C 35.972656 20.90625 38.226562 15.460938 42.328125 11.359375 C 46.425781 7.261719 51.875 5.003906 57.671875 5.003906 C 63.464844 5.003906 68.914062 7.261719 73.015625 11.359375 C 74.660156 13.007812 76.023438 14.886719 77.058594 16.945312 C 77.523438 17.867188 78.644531 18.234375 79.5625 17.773438 C 80.480469 17.308594 80.851562 16.191406 80.386719 15.269531 C 79.171875 12.855469 77.578125 10.652344 75.648438 8.726562 C 70.847656 3.921875 64.460938 1.277344 57.671875 1.277344 C 50.878906 1.277344 44.496094 3.921875 39.691406 8.726562 C 34.890625 13.527344 32.246094 19.914062 32.246094 26.703125 C 32.246094 33.496094 34.890625 39.878906 39.691406 44.683594 C 41.078125 46.066406 42.585938 47.257812 44.179688 48.257812 C 43.023438 48.558594 41.871094 48.894531 40.734375 49.277344 C 39.757812 49.601562 39.234375 50.65625 39.558594 51.632812 C 39.886719 52.609375 40.941406 53.136719 41.917969 52.808594 C 52.074219 49.414062 63.265625 49.414062 73.425781 52.808594 C 73.621094 52.875 73.820312 52.90625 74.015625 52.90625 C 74.792969 52.90625 75.519531 52.414062 75.78125 51.632812 C 76.109375 50.65625 75.582031 49.601562 74.605469 49.277344 C 73.46875 48.894531 72.320312 48.558594 71.160156 48.257812 C 71.160156 48.257812 71.164062 48.257812 71.164062 48.257812 C 72.757812 47.257812 74.265625 46.066406 75.648438 44.683594 C 76.875 43.457031 77.957031 42.117188 78.894531 40.695312 C 79.410156 40.796875 79.917969 40.902344 80.421875 41.011719 C 81.089844 41.15625 81.757812 41.3125 82.417969 41.476562 C 82.394531 41.554688 82.375 41.636719 82.355469 41.71875 C 81.449219 46.03125 81.507812 49.84375 82.53125 53.050781 C 83.453125 55.933594 85.117188 58.273438 87.472656 59.996094 C 90.25 62.027344 93.601562 62.90625 96.640625 62.90625 C 98.925781 62.90625 101.035156 62.40625 102.582031 61.53125 C 104.335938 60.539062 105.800781 58.449219 106.960938 55.3125 C 107.5 55.9375 108.007812 56.582031 108.488281 57.238281 C 110.433594 59.902344 111.914062 62.835938 112.898438 65.960938 C 113.476562 67.796875 114.910156 69.242188 116.730469 69.828125 L 121.976562 71.507812 C 123.351562 71.945312 124.273438 73.214844 124.273438 74.65625 L 124.273438 83.351562 C 124.273438 84.796875 123.351562 86.0625 121.976562 86.503906 L 113.527344 89.207031 C 112.175781 89.640625 111.03125 90.570312 110.308594 91.824219 C 106.988281 97.558594 101.769531 102.304688 94.796875 105.929688 C 93.992188 106.351562 93.433594 107.101562 93.265625 107.988281 L 90.5625 122.3125 C 90.484375 122.710938 90.140625 122.996094 89.738281 122.996094 L 80.941406 122.996094 C 80.539062 122.996094 80.195312 122.707031 80.121094 122.3125 L 78.621094 114.398438 C 78.328125 112.839844 76.867188 111.804688 75.292969 112.042969 C 71.503906 112.617188 67.597656 112.90625 63.6875 112.90625 C 60.777344 112.90625 57.90625 112.742188 55.152344 112.421875 C 53.628906 112.25 52.207031 113.285156 51.921875 114.792969 L 50.5 122.3125 C 50.425781 122.710938 50.078125 122.996094 49.675781 122.996094 L 40.878906 122.996094 C 40.476562 122.996094 40.132812 122.707031 40.054688 122.308594 L 37.453125 108.777344 C 37.285156 107.90625 36.734375 107.164062 35.949219 106.742188 C 24.0625 100.398438 17.78125 89.796875 17.78125 76.085938 C 17.78125 69.160156 19.296875 63.035156 22.285156 57.882812 C 25.074219 53.070312 29.148438 49.09375 34.390625 46.0625 C 35.28125 45.546875 35.585938 44.40625 35.070312 43.515625 C 34.554688 42.625 33.417969 42.320312 32.527344 42.835938 C 22.355469 48.71875 16.222656 57.796875 14.535156 69.324219 L 14.535156 69.320312 C 14.355469 69.304688 14.175781 69.289062 13.996094 69.273438 C 14.027344 68.027344 13.804688 66.773438 13.3125 65.554688 C 12.234375 62.867188 10.011719 60.929688 7.65625 60.617188 C 5.800781 60.367188 4.035156 61.15625 2.808594 62.773438 C 1.03125 65.121094 1.320312 66.980469 1.878906 68.128906 C 2.816406 70.058594 5.226562 71.429688 9.230469 72.289062 C 9.121094 72.453125 9 72.617188 8.867188 72.785156 C 6.503906 75.75 3.714844 76.40625 1.90625 76.46875 C 0.847656 76.503906 0 77.351562 0 78.414062 L 0 78.421875 C 0 79.46875 0.824219 80.320312 1.867188 80.367188 C 2.003906 80.375 2.140625 80.378906 2.289062 80.378906 C 4.578125 80.378906 8.25 79.53125 11.78125 75.105469 C 12.335938 74.410156 12.792969 73.671875 13.140625 72.910156 C 13.492188 72.949219 13.828125 72.984375 14.152344 73.015625 C 14.152344 73.011719 14.152344 73.011719 14.152344 73.011719 C 14.089844 74.019531 14.054688 75.046875 14.054688 76.085938 C 14.054688 83.84375 15.902344 90.761719 19.550781 96.644531 C 22.914062 102.070312 27.726562 106.511719 33.863281 109.851562 L 36.398438 123.007812 C 36.804688 125.160156 38.691406 126.722656 40.878906 126.722656 L 49.675781 126.722656 C 51.867188 126.722656 53.753906 125.160156 54.160156 123.007812 L 55.445312 116.203125 C 58.121094 116.488281 60.890625 116.632812 63.6875 116.632812 C 67.527344 116.632812 71.363281 116.363281 75.101562 115.835938 L 76.457031 123.007812 C 76.867188 125.160156 78.75 126.722656 80.941406 126.722656 L 89.738281 126.722656 C 91.929688 126.722656 93.8125 125.160156 94.222656 123.007812 L 96.855469 109.058594 C 104.296875 105.125 109.90625 99.953125 113.53125 93.691406 C 113.792969 93.238281 114.195312 92.90625 114.664062 92.757812 L 123.109375 90.050781 C 126.035156 89.113281 128 86.421875 128 83.351562 L 128 74.65625 C 128 71.585938 126.035156 68.894531 123.109375 67.957031 Z M 105.320312 45.816406 C 104.601562 51.949219 102.679688 57.195312 100.746094 58.289062 C 98.550781 59.535156 93.480469 59.773438 89.671875 56.988281 C 85.859375 54.199219 84.589844 49.183594 86.003906 42.488281 C 86.144531 41.8125 86.621094 41.230469 87.28125 40.929688 C 96.605469 36.660156 101.984375 35.265625 103.980469 35.265625 C 104.28125 35.265625 104.507812 35.296875 104.65625 35.355469 C 105.257812 35.996094 106.042969 39.628906 105.320312 45.816406 Z M 5.230469 66.5 C 5.039062 66.101562 5.492188 65.402344 5.78125 65.023438 C 6.238281 64.417969 6.660156 64.296875 6.976562 64.296875 C 7.046875 64.296875 7.109375 64.300781 7.164062 64.308594 C 8.023438 64.421875 9.222656 65.363281 9.859375 66.945312 C 10.007812 67.316406 10.203125 67.933594 10.246094 68.703125 C 7.667969 68.167969 5.664062 67.398438 5.230469 66.5 Z M 5.230469 66.5 "/>
<path style=" stroke:none;fill-rule:nonzero;fill:rgb(0%,0%,0%);fill-opacity:1;" d="M 59.480469 24.570312 L 59.480469 17.902344 C 61.777344 18.066406 62.632812 19.117188 63.421875 19.117188 C 64.40625 19.117188 64.867188 17.871094 64.867188 17.246094 C 64.867188 15.636719 61.710938 14.949219 59.480469 14.882812 L 59.480469 13.996094 C 59.480469 13.601562 58.988281 13.238281 58.496094 13.238281 C 57.9375 13.238281 57.542969 13.601562 57.542969 13.996094 L 57.542969 14.945312 C 54.421875 15.277344 51.300781 16.917969 51.300781 21.054688 C 51.300781 25.257812 54.585938 26.441406 57.542969 27.492188 L 57.542969 35.210938 C 54.191406 34.945312 53.304688 32.648438 52.222656 32.648438 C 51.402344 32.648438 50.710938 33.730469 50.710938 34.519531 C 50.710938 36.128906 53.46875 38.328125 57.542969 38.394531 L 57.542969 39.414062 C 57.542969 39.808594 57.9375 40.167969 58.496094 40.167969 C 58.988281 40.167969 59.480469 39.808594 59.480469 39.414062 L 59.480469 38.296875 C 63.027344 37.804688 65.457031 35.570312 65.457031 31.53125 C 65.457031 27.066406 62.335938 25.621094 59.480469 24.570312 Z M 57.738281 23.945312 C 56 23.289062 54.585938 22.597656 54.585938 20.726562 C 54.585938 19.019531 55.898438 18.199219 57.738281 17.96875 Z M 59.28125 35.144531 L 59.28125 28.214844 C 60.890625 28.902344 62.171875 29.824219 62.171875 31.890625 C 62.171875 33.765625 61.054688 34.816406 59.28125 35.144531 Z M 59.28125 35.144531 "/>
</g>
</svg>
